PathFileType	4	(X/Y/Z)	C:\Users\WrightLab\Desktop\Jo\P2_Trial35.trc
DataRate	CameraRate	NumFrames	NumMarkers	Units	OrigDataRate	OrigDataStartFrame	OrigNumFrames
100.00	100.00	      8	19	mm	100.00	718	      1148
Frame#	Time	Headset_Front			Headset_Back			Headset_Left			Headset_Right			Left_Shoulder			Right_Shoulder			Sternum			C7			Left Elbow			Right Elbow			Left Wrist			Right Wrist			Left ASIS			Right ASIS			S2			Left Knee			Right Knee			Left Ankle			Right Ankle			
		X1	Y1	Z1	X2	Y2	Z2	X3	Y3	Z3	X4	Y4	Z4	X5	Y5	Z5	X6	Y6	Z6	X7	Y7	Z7	X8	Y8	Z8	X9	Y9	Z9	X10	Y10	Z10	X11	Y11	Z11	X12	Y12	Z12	X13	Y13	Z13	X14	Y14	Z14	X15	Y15	Z15	X16	Y16	Z16	X17	Y17	Z17	X18	Y18	Z18	X19	Y19	Z19	

718	7.170	-320.17090	1422.00867	196.75211	-320.01642	1674.95300	373.37759	-426.75674	1547.36890	329.08749	-217.13754	1524.77087	232.57262	-393.42667	1458.60254	517.71448	-153.04733	1426.33777	319.60989	-306.63101	1308.30713	392.62045	-184.52686	1456.65649	493.22385	-431.72128	1177.63196	643.69690	-52.85111	1163.39978	185.08583	-527.14587	1141.53052	509.77423	-110.72659	1022.24445	3.28914	-314.15320	1015.52313	456.35840	-203.31245	998.71381	378.37686	-107.94582	986.73328	640.58917	-353.64648	456.12491	562.81622	-62.19444	580.52130	351.33359	-356.50299	120.18090	462.60117	-21.93071	158.96837	407.42386	
719	7.180	-322.18393	1421.05872	193.62090	-321.59555	1675.19446	368.76016	-429.13290	1547.30225	325.05112	-218.42612	1523.38293	235.79166	-395.26331	1459.08813	514.01080	-154.73672	1425.94336	316.34128	-308.78705	1308.20300	389.78259	-186.31847	1457.30359	489.61789	-433.66251	1178.51038	640.73682	-55.43544	1163.58545	181.74931	-528.48621	1142.03772	506.62415	-112.64337	1021.88269	0.32062	-316.14462	1015.58826	454.57761	-205.62944	999.66541	376.15491	-109.56210	987.86426	638.28351	-353.81540	456.17276	564.83582	-64.94228	580.91498	349.92688	-357.50751	119.88170	465.39191	-29.21736	156.96893	398.42560	
720	7.190	-323.83408	1420.56714	190.63855	-322.81409	1675.37366	364.48813	-430.88089	1547.21143	321.17758	-219.82600	1522.34583	234.06158	-397.40005	1459.56921	510.38483	-156.62579	1426.33716	312.58347	-310.69849	1308.17310	387.12250	-187.32671	1457.16321	485.90359	-435.80588	1179.53821	638.41205	-57.24071	1163.09290	179.12183	-528.73694	1141.38220	503.02744	-114.51323	1021.64532	-2.48564	-318.06931	1016.25189	450.42392	-206.61984	999.15936	374.80475	-111.90382	988.95599	638.90057	-353.42749	456.15332	566.00586	-67.10734	580.84003	349.13895	-358.45978	119.67039	468.27560	-35.89428	153.28122	390.84293	
721	7.200	-325.01141	1419.98755	187.40176	-324.81915	1675.55481	360.41699	-431.70395	1546.77942	317.17664	-221.61769	1521.49585	231.47963	-399.22217	1459.85950	506.85361	-158.52396	1425.71802	309.80780	-312.00458	1308.00000	383.81625	-189.92714	1457.68445	482.80423	-438.01343	1180.66626	636.18823	-59.12574	1162.82178	175.95398	-530.43933	1142.50525	500.36966	-115.89630	1021.72308	-5.11324	-319.65720	1015.99396	449.57651	-208.79263	1000.05060	372.90765	-113.77094	989.89197	637.19629	-352.75250	456.42456	567.61395	-68.99253	581.60852	348.77533	-359.82257	118.77792	471.70593	-43.11303	150.44356	382.66928	
722	7.210	-326.38553	1419.11658	183.34491	-326.36868	1675.36292	356.16882	-432.98004	1546.56311	313.23477	-223.16800	1521.16040	227.56885	-401.56955	1460.60498	503.24680	-159.70825	1425.57532	305.71219	-313.04047	1307.50867	381.45676	-191.74333	1457.79675	479.41177	-439.30319	1181.31714	633.53345	-60.92653	1163.20728	173.07733	-531.47180	1142.33545	497.86542	-117.36307	1021.09515	-7.45687	-321.13522	1015.92914	447.43707	-210.33987	999.88281	371.02713	-115.64970	990.96320	635.54462	-352.33060	456.70926	568.86420	-71.41315	581.26367	349.81036	-363.20413	119.03550	475.28653	-50.85319	149.04564	373.27518	
723	7.220	-327.94275	1418.36414	179.86465	-327.55707	1674.71057	352.04437	-435.25806	1546.58997	309.09171	-224.31082	1520.41443	223.99057	-402.58658	1460.36951	499.29160	-161.66501	1425.32080	303.17581	-315.29959	1307.76550	378.70590	-193.41585	1458.27051	476.07642	-441.22461	1182.09314	631.36829	-62.88474	1162.93066	170.10948	-532.45819	1142.05225	495.66754	-118.81133	1020.75726	-10.21363	-322.52292	1016.18256	444.83893	-210.80190	999.24011	369.87039	-117.21337	991.47668	633.74377	-351.47321	456.91846	569.83704	-73.25225	580.61676	350.90472	-362.20370	117.65009	479.03769	-58.37891	146.58632	363.50970	
724	7.230	-329.09601	1417.54749	176.37386	-328.88461	1674.38403	348.17630	-436.75931	1546.26147	305.53970	-225.98729	1519.97412	219.75964	-404.68982	1460.74902	495.85916	-162.92384	1425.00049	299.78027	-317.17905	1307.58484	375.82492	-194.77318	1458.15234	472.76434	-442.74774	1183.07336	629.46405	-63.71732	1162.71533	167.92079	-533.52081	1141.89050	492.87149	-119.98989	1020.08118	-12.92954	-323.72394	1016.38910	443.10092	-212.02303	999.21906	368.57193	-118.61153	992.59253	632.41858	-350.36661	457.17056	570.53735	-74.96947	579.36066	352.98099	-364.68884	117.72094	482.44586	-65.74829	144.40274	355.53955	
725	7.240	-330.70956	1417.04871	173.82014	-330.71518	1674.08423	344.42715	-437.39941	1545.40576	301.48532	-226.99747	1519.33667	216.66641	-406.07431	1460.88293	492.54117	-164.57262	1424.17615	297.26596	-318.55530	1307.55896	372.17416	-196.16483	1458.14294	469.50226	-444.35135	1183.79932	627.35980	-65.05528	1162.22949	165.43822	-534.86993	1141.92578	490.78268	-121.76972	1019.67584	-15.09903	-324.80545	1016.65662	440.79236	-213.17560	999.27911	365.58640	-120.63191	993.41815	630.51929	-348.23071	456.73276	571.16217	-76.71082	578.49402	355.85178	-365.07336	117.49564	486.56805	-73.23338	142.51477	345.39523	
